<svg xmlns="http://www.w3.org/2000/svg" width="64" height="64" viewBox="550 500 2600 2300" fill="#ffffff" aria-hidden="true">
  <path d="M 630.921875 1902.28125 L 1566.921875 1134.28125 L 1634.671875 1078.691406 L 1702.679688 1133.949219 L 2086.679688 1445.949219 L 1942.050781 1454.429688 L 2782.050781 590.429688 L 2935.949219 740.070312 L 2095.949219 1604.070312 L 2027.519531 1674.460938 L 1951.320312 1612.550781 L 1567.320312 1300.550781 L 1703.078125 1300.21875 L 767.078125 2068.21875 Z"/>
  <path d="M 747 2273.25 L 1011 2057.25 C 1011 2201.25 1011 2345.25 1011 2489.25 C 923 2489.25 835 2489.25 747 2489.25 L 747 2273.25"/>
  <path d="M 1131 1985.25 L 1395 1769.25 C 1395 2009.25 1395 2249.25 1395 2489.25 L 1131 2489.25 L 1131 1985.25"/>
  <path d="M 1515 1673.25 L 1659 1577.25 L 1779 1673.25 L 1779 2489.25 L 1515 2489.25 L 1515 1673.25"/>
  <path d="M 1899 2489.25 L 1899 1769.25 L 2043 1889.25 L 2163 1769.25 L 2163 2489.25 L 1899 2489.25"/>
  <path d="M 2283 2489.25 L 2283 1649.25 C 2371 1561.25 2459 1473.25 2547 1385.25 C 2547 1753.25 2547 2121.25 2547 2489.25 L 2283 2489.25"/>
  <path d="M 2667 2489.25 L 2667 1265.25 L 2931 977.25 C 2931 1481.25 2931 1985.25 2931 2489.25 L 2667 2489.25"/>
  <path d="M 2907 761.25 L 2979 953.25 L 3075 521.25 L 2571 569.25 L 2763 641.25 L 2907 761.25"/>
  <path d="M 579 2561.25 L 3123 2561.25 C 3075 2625.25 3027 2689.25 2979 2753.25 L 723 2753.25 L 579 2561.25"/>
</svg>
