<svg xmlns="http://www.w3.org/2000/svg" width="64" height="64" viewBox="0 0 1394.83 1072.2" fill="#ffffff" aria-hidden="true">
  <path d="M1389.47,323.58c5.22-6.33,7.65-16.67,2.54-23.88-29.84-42.14-59.68-84.29-89.52-126.43-37.02-52.28-74.03-104.56-111.05-156.84-1.42-2.01-2.81-3.99-4.26-5.83-.86-1.53-1.88-3.02-3.23-4.38-2.97-2.97-7.17-4.86-11.57-5.56-.94-.17-1.88-.35-2.92-.41-2.05-.12-4.13,0-6.18,0H254.52c-5.47,0-12.18-.59-18.41.05-.01,0-.02,0-.03,0-.74.08-1.47.15-2.19.27-2.42.31-4.75.99-6.9,2.01-.1.05-.2.11-.3.16-1.9.94-3.67,2.06-5.1,3.48-1.12,1.12-2.04,2.3-2.82,3.51-2.51,3.12-4.82,6.59-7.03,9.56-6.53,8.78-13.07,17.55-19.6,26.33-20.9,28.08-41.81,56.15-62.71,84.23-39.78,53.43-79.56,106.86-119.34,160.29-2.38,3.19-4.75,6.38-7.12,9.57-4.34,5.83-3.53,13.83,0,20.1.34.65.75,1.28,1.18,1.92.26.38.53.74.81,1.09.34.47.66.96,1.04,1.39.06.07.09.14.15.2,22.51,24.67,45.02,49.34,67.52,74,53.81,58.97,107.62,117.95,161.43,176.92,65.3,71.57,130.6,143.14,195.9,214.7,56.25,61.65,112.5,123.29,168.74,184.94,27.27,29.89,53.49,61.45,82.14,90.03.41.41.79.87,1.19,1.3,7.18,7.87,21.65,7.87,28.83,0,22.51-24.67,45.02-49.34,67.52-74,53.81-58.97,107.62-117.95,161.43-176.92,65.3-71.57,130.6-143.13,195.9-214.7,56.25-61.65,112.5-123.29,168.74-184.94,27.35-29.98,55.54-59.38,82.14-90.03.38-.44.79-.87,1.19-1.3.08-.08.14-.19.21-.27.16-.18.28-.37.43-.55ZM1221.35,128.96c36.67,51.79,73.34,103.58,110.01,155.37,1.24,1.76,2.49,3.51,3.73,5.27h-363.88c17.56-21.01,35.11-42.01,52.67-63.02,43.42-51.95,86.84-103.9,130.26-155.85,4.69-5.61,9.38-11.22,14.07-16.83,17.71,25.02,35.43,50.04,53.14,75.06ZM706.21,954.99c-2.89,9.32-5.79,18.65-8.68,27.97-1.04-3.36-2.08-6.72-3.11-10.08-18.2-58.93-36.4-117.85-54.61-176.78-22.13-71.66-44.27-143.32-66.4-214.98-19.06-61.69-38.11-123.39-57.17-185.08-6.74-21.81-13.04-43.84-19.88-65.66h403.68c-4.94,15.93-9.88,31.85-14.82,47.78-18.29,58.93-36.57,117.85-54.86,176.78-22.24,71.66-44.47,143.32-66.71,214.98-19.14,61.69-38.29,123.39-57.43,185.08ZM697.52,53.21c21.11,26.53,42.21,53.06,63.32,79.59,41.32,51.94,82.65,103.88,123.97,155.82.26.33.52.66.78.98h-375.29c16.57-20.93,33.15-41.85,49.72-62.78,41.11-51.91,82.23-103.83,123.34-155.75,4.72-5.95,9.43-11.91,14.15-17.87ZM1054.76,41.02h71.27c-17.56,21.01-35.11,42.01-52.67,63.02-43.42,51.95-86.84,103.9-130.26,155.85-5.02,6-10.03,12.01-15.05,18.01-21.24-26.69-42.48-53.39-63.71-80.08-41.32-51.94-82.65-103.88-123.97-155.82-.26-.33-.52-.66-.78-.98h315.17ZM328.69,41.02h326.82c-16.57,20.93-33.15,41.85-49.72,62.78-41.12,51.91-82.23,103.83-123.35,155.75-4.74,5.98-9.48,11.97-14.22,17.95-21.37-26.61-42.74-53.23-64.1-79.84-41.58-51.78-83.15-103.57-124.73-155.35-.34-.43-.69-.86-1.04-1.29h50.33ZM226.92,66.75c3.23-4.33,6.45-8.66,9.68-13,21.2,26.4,42.4,52.8,63.6,79.21,41.58,51.78,83.15,103.57,124.73,155.35.34.43.69.86,1.04,1.29h-239.52c-41.58,0-83.32-.9-124.97-.63,16.39-22.01,32.77-44.02,49.16-66.03,38.76-52.06,77.53-104.13,116.29-156.19ZM482.95,786.54c-65.3-71.57-130.6-143.14-195.9-214.7-56.25-61.65-112.5-123.29-168.75-184.94-16.96-18.59-33.56-37.76-50.54-56.52h385.53c6.03,19.54,12.07,39.08,18.11,58.61,18.2,58.93,36.4,117.85,54.6,176.78,22.14,71.66,44.27,143.32,66.4,214.98,19.06,61.69,38.11,123.38,57.17,185.08.51,1.65,1,3.32,1.51,4.97-2.23-2.45-4.47-4.89-6.7-7.34-53.81-58.97-107.62-117.95-161.43-176.92ZM1292.47,369.58c-53.81,58.97-107.62,117.95-161.43,176.92-65.3,71.57-130.6,143.13-195.9,214.7-56.25,61.65-112.5,123.29-168.74,184.94-7.45,8.17-14.91,16.34-22.36,24.51,16.93-54.57,33.87-109.14,50.8-163.71,22.24-71.66,44.47-143.32,66.71-214.98,19.14-61.69,38.29-123.39,57.43-185.08,7.89-25.42,16.82-50.83,24.15-76.5h265.41c39.63,0,79.4.81,119.1.66-11.72,12.85-23.44,25.69-35.17,38.54Z"/>
</svg>
