<svg xmlns="http://www.w3.org/2000/svg" width="64" height="64" viewBox="0 0 2614.31 2476.66" fill="none" aria-hidden="true">
  <g stroke="#ffffff" stroke-width="100" stroke-linecap="round" stroke-linejoin="round">
    <path d="M2088.83,2067.88c-20.85,21.58-42.63,42.22-65.16,62.01l51.22-76.58,13.93,14.56Z"/>
    <path d="M2223.12,1903.41c-3.77,5.55-7.65,11.21-11.63,16.66l-4.61-4.82,16.24-11.84Z"/>
    <path d="M2426.66,1238.33c0,165.3-33.73,322.85-94.91,465.84l-299.18-109.78-216.32-79.3-191.8-70.39,129.37,384.97,14.04,41.59,8.59,25.66,112.82,335.53c-184.37,121.2-404.45,192.22-641.2,194.11-3.25.1-6.49.1-9.74.1s-6.49,0-9.74-.1c-348.1-2.72-660.37-155.14-875.85-396.07-188.35-210.24-302.74-487.84-302.74-792.15s114.39-581.91,302.74-792.15C568.22,205.25,880.49,52.83,1228.59,50.1c3.25-.1,6.49-.1,9.74-.1s6.49,0,9.74.1c348.1,2.72,660.37,155.14,875.85,396.07,188.35,210.24,302.74,487.84,302.74,792.15Z"/>
    <path d="M1816.26,1515.09l-191.8-70.39,129.37,384.97c-5.66,19.48-11.52,38.65-17.7,57.4-104.23,319.92-283.57,532.88-488.05,539.48-3.25.1-6.49.1-9.74.1s-6.49,0-9.74-.1c-204.48-6.6-383.82-219.56-488.05-539.48-60.97-186.46-96.37-409.38-96.37-648.74s35.41-462.28,96.37-648.74C844.77,269.67,1024.11,56.7,1228.59,50.1c3.25-.1,6.49-.1,9.74-.1s6.49,0,9.74.1c204.48,6.6,383.82,219.56,488.05,539.48,60.97,186.46,96.37,409.38,96.37,648.74,0,95.33-5.66,187.93-16.24,276.76Z"/>
    <path d="M2123.92,446.18c-107.58,60.13-239.36,109.26-387.8,143.41-151.37,35.09-320.02,54.58-497.79,54.58s-346.42-19.48-497.79-54.58c-148.44-34.15-280.22-83.28-387.8-143.41C570.21,203.05,886.36,50,1238.33,50s668.12,153.05,885.59,396.18Z"/>
    <path d="M1889.27,2232.44c-184.37,121.2-404.45,192.22-641.2,194.11-3.25.1-6.49.1-9.74.1s-6.49,0-9.74-.1c-348.1-2.72-660.37-155.14-875.85-396.07,107.58-60.13,239.36-109.26,387.8-143.41,151.37-35.09,320.02-54.58,497.79-54.58s346.42,19.48,497.79,54.58c13.62,3.14,27.03,6.39,40.33,9.85l112.82,335.53Z"/>
    <polyline points="1238.33 2426.64 1238.33 1238.33 1238.33 50.02"/>
    <line x1="2426.64" y1="1238.33" x2="50.02" y2="1238.33"/>
    <polygon points="2564.31 2288.59 2432.31 2426.66 2088.83 2067.88 2074.89 2053.31 2023.67 2129.89 1911.27 2297.71 1889.27 2232.44 1776.45 1896.92 1767.86 1871.25 1753.82 1829.67 1624.45 1444.69 1816.26 1515.09 2032.57 1594.39 2331.75 1704.17 2440.7 1744.08 2223.12 1903.41 2206.88 1915.25 2211.49 1920.07 2564.31 2288.59"/>
  </g>
</svg>
