<?xml version="1.0" encoding="UTF-8"?>
<svg id="Layer_1" data-name="Layer 1" xmlns="http://www.w3.org/2000/svg" xmlns:xlink="http://www.w3.org/1999/xlink" viewBox="0 0 2968.98 741.18">
  <defs>
    <style>
      .cls-1 {
        fill: url(#linear-gradient-2);
      }

      .cls-2 {
        fill: url(#linear-gradient);
      }

      .cls-3 {
        fill: #fff;
      }

      .cls-4 {
        fill: #fefefe;
      }
    </style>
    <linearGradient id="linear-gradient" x1="798.69" y1="838.52" x2="945.51" y2="36.64" gradientUnits="userSpaceOnUse">
      <stop offset=".21" stop-color="#0068e1"/>
      <stop offset=".9" stop-color="#169ffe"/>
    </linearGradient>
    <linearGradient id="linear-gradient-2" x1="2086.09" y1="427.87" x2="2086.09" y2="734.73" gradientUnits="userSpaceOnUse">
      <stop offset=".08" stop-color="#0a85e6"/>
      <stop offset=".67" stop-color="#0073d9"/>
      <stop offset=".98" stop-color="#0269d1"/>
    </linearGradient>
  </defs>
  <polygon class="cls-2" points="1148.34 116.59 1032.11 0 721.17 0 644.93 156.12 948.7 155.65 976.93 184.35 976.93 255.88 946.81 286.71 832.8 286.71 832.8 286.62 667.72 286.62 561.72 437.68 610.76 437.68 610.7 437.76 946.34 437.76 977.05 468.82 977.05 551.06 946.93 581.53 624.7 581.53 527.99 741.18 1030.93 741.18 1148.34 623.88 1148.34 439.41 1072.58 360.82 1148.34 285.06 1148.34 116.59"/>
  <polygon class="cls-3" points="519.33 157.65 519.33 157.65 568.58 157.65 646.7 0 582.46 0 329.5 0 183.89 0 117.33 72 0 664.94 50.2 741.18 425.96 741.18 425.96 741.18 453.05 741.18 548.58 581.65 329.5 581.4 329.5 581.4 167.15 581.18 194.7 438.47 424.82 438.47 424.82 438.47 451.64 438.47 561.76 286.71 329.5 286.71 329.5 286.71 224 286.71 248.92 157.65 519.33 157.65"/>
  <path class="cls-4" d="M2260.06,52.16h-223.71l-57.14,45.69-61.26,227.92,33.52,45.38h225.86l55.74-45.93,61.43-226.34-34.43-46.72ZM2154.04,293.31h-138.64l44-164.33h137.48l-42.83,164.33Z"/>
  <polygon class="cls-4" points="1671.72 371.14 1580.76 371.14 1667.71 52.16 1923.6 52.16 1956.78 97.98 1922.18 228.4 1867.84 274.63 1719.45 274.63 1740.8 198.05 1842.61 198.05 1860.6 128.89 1735.51 128.89 1671.72 371.14"/>
  <polygon class="cls-4" points="2226.28 371.14 2332.12 371.14 2424.88 279.58 2470.76 371.14 2573.47 371.14 2496.73 211.11 2658.07 52.16 2548.38 52.16 2459.91 142.05 2417.33 52.16 2313.17 52.16 2389.43 209.42 2226.28 371.14"/>
  <polygon class="cls-4" points="2627.89 52.16 2726.24 52.16 2767.85 167.19 2866.82 52.16 2968.98 52.16 2788.02 259.32 2759.63 371.14 2671.48 371.14 2701.27 257 2627.89 52.16"/>
  <polygon class="cls-4" points="1610.06 129.47 1643.65 52.16 1350.34 52.16 1274.49 334.88 1306.62 371.14 1553.21 371.14 1573.42 294.37 1373.92 294.37 1386.25 248.02 1536.25 248.02 1565.51 174.86 1405.71 174.86 1417.77 129.47 1610.06 129.47"/>
  <path class="cls-1" d="M2252.01,426.74h-220.49l-58.93,47.21-57.79,222.69,34.11,44.54h219.95l57.75-46.27,59.82-222.12-34.43-46.05ZM2147.77,662.67h-137.26l42.81-159.43h136.1l-41.65,159.43ZM1904.17,426.74h-220.49l-58.93,47.21-57.79,222.69,34.11,44.54h219.95l57.75-46.27,59.82-222.12-34.43-46.05ZM1799.94,662.67h-137.26l42.81-159.43h136.1l-41.65,159.43ZM2744.5,478.64h88.18l-68.06,262.54h-90.46l70.34-262.54ZM2640.04,503.41l37.19-76.1h275.36l-39.8,76.1h-272.75ZM2237.77,741.18l47.24-78.51h204l11.22-44.52h-166.63l-31.43-41.95,26.76-102.53,58.27-46.94h261.59l-41.51,76.67h-196.29l-12.12,44.35h165.4l31.38,43.83-27.2,102.01-57.71,47.58h-272.97ZM1587.45,472.86l-31.42-46.12h-251.54l-84.91,314.44h263.97l54.03-44.33,23.71-87.35-24.62-30.78,31.17-24.88,19.61-80.99ZM1459.24,663.33h-130.28l11.45-43.83h130.28l-11.45,43.83ZM1481.71,547.67h-123.04l11.45-43.83h123.04l-11.45,43.83Z"/>
</svg>