<?xml version="1.0" encoding="UTF-8"?>
<svg xmlns="http://www.w3.org/2000/svg" viewBox="0 0 32 32">
  <rect width="32" height="32" rx="6" fill="#19191c" />
  <g transform="translate(2 8.2) scale(0.0245)">
    <polygon
      fill="#fff"
      points="1148.3 116.6 1032.1 0 721.2 0 644.9 156.1 948.7 155.6 976.9 184.4 976.9 255.9 946.8 286.7 832.8 286.7 832.8 286.6 667.7 286.6 561.7 437.7 610.8 437.7 610.7 437.8 946.3 437.8 977 468.8 977 551.1 946.9 581.5 624.7 581.5 528 741.2 1030.9 741.2 1148.3 623.9 1148.3 439.4 1072.6 360.8 1148.3 285.1 1148.3 116.6"
    />
    <polygon
      fill="#fff"
      points="519.3 157.6 519.3 157.6 568.6 157.6 646.7 0 582.5 0 329.5 0 183.9 0 117.3 72 0 664.9 50.2 741.2 426 741.2 426 741.2 453.1 741.2 548.6 581.6 329.5 581.4 329.5 581.4 167.2 581.2 194.7 438.5 424.8 438.5 424.8 438.5 451.6 438.5 561.8 286.7 329.5 286.7 329.5 286.7 224 286.7 248.9 157.6 519.3 157.6"
    />
  </g>
</svg>
